<svg id="Layer_1" data-name="Layer 1" xmlns="http://www.w3.org/2000/svg" width="547.99" height="93" viewBox="0 0 547.99 93">
  <g id="Layer_2" data-name="Layer 2">
    <g id="Layer_1-2" data-name="Layer 1-2">
      <g id="_Group_" data-name=" Group ">
        <path id="_Group_2" data-name=" Group 2" d="M161.19,65.33h-8.41V15.14l.46-5.73L152.31,15q-.28,1.58-3.61,14.51-2.69,10.54-6,23.39-1.66,6.2-3.24,12.39h-8.41l-3.14-12.2-6.1-23.29Q118.39,16.62,118.2,15l-.92-5.64a27.66,27.66,0,0,0,.23,3.28c.15,1.33.23,2.15.23,2.45V65.33h-8.41V.07h13L134.84,49.9l.37,4.16.46-4.16q.18-2.11,3.33-14.6,2.77-10.9,5.92-23.06T148.15.07h13Zm19.65-10.2h-7.73V0h7.73ZM220,15.93l-7.73,1.41V6.79h-13.2V17.1L220,30.22V50.45l-4.61,4.69H196.15l-4.76-4.82v-14l7.73-1.41V48.34h13.2v-14l-20.93-13.1V4.7L196,0h19.47L220,4.53Zm39.48,0-7.73,1.41V6.79h-13.2V17.1l20.93,13.12V50.45l-4.61,4.69H235.59l-4.76-4.82v-14l7.73-1.41V48.34h13.2v-14l-20.94-13.1V4.7l4.6-4.7h19.47l4.6,4.53ZM278,55.13h-7.73V0H278Zm40.37-4.6-4.61,4.61H293.14l-4.61-4.61V4.61L293,0h20.93l4.45,4.61Zm-7.73-2.19V6.79H296.26V48.34Zm51.54,6.79h-8.82L336.27,13.27l-1-3.58.8,3.82V55.14H329V0h9l16.88,41.54,1,3.36-.78-3.28V0h7.11Zm57.68,10.2h-9.15v-30H395.09v30h-9.15V.07H414.5l5.36,5.64V26.6l-4.71,4.81,4.71,4.53Zm-9.15-37.9V7.84H395.09v19.6Zm25.11,27.7h-7.73V0h7.73Zm40.61-4.68-4.69,4.69H446.36V0H471.9l4.53,4.69Zm-7.73-2.11V6.79H454.1V48.34Zm45.21,2.18-4.53,4.62h-21l-4.53-4.61v-46L488.45,0h21l4.45,4.51V16.33l-7.73,1.17V6.79h-14.6V48.5h14.6V29.67H496V22.88h18Zm33.89,4.61H522.89V0H547.8V7.26H530.62V22.88h15.85v7.18H530.62V47.71H547.8Z" transform="translate(-0.01 0)" style="fill: #000"/>
      </g>
      <path id="_Group_7" data-name=" Group 7" d="M360.44,65.49H175.07a1.76,1.76,0,0,1,0-3.51H360.44a1.76,1.76,0,1,1,0,3.51Z" transform="translate(-0.01 0)" style="fill: #000"/>
      <path id="_Group_8" data-name=" Group 8" d="M546.09,65.49h-116a1.76,1.76,0,0,1,0-3.51h116a1.76,1.76,0,1,1,0,3.51Z" transform="translate(-0.01 0)" style="fill: #000"/>
      <path id="_Group_9" data-name=" Group 9" d="M118.42,92.86h-2.65v-8.7h-4.53v8.7h-2.65V74h8.27l1.55,1.63v6.05L117.06,83l1.37,1.31Zm-2.65-11V76.21h-4.53v5.68Zm30.68,11h-2.77L142.57,88h-4.35l-1.1,4.9H134.3L138.53,74h3.75Zm-4.19-7.28-1.7-8.06-.18-1.39-.16,1.4-1.67,8.06Zm31.5,7.28h-3L164.9,78.52l-.36-1.23.27,1.31V92.86h-2.44V74h3.11l5.79,14.24.34,1.15-.27-1.12V74h2.44Zm27.72-1.58-1.55,1.58h-7.2l-1.55-1.58V75.51L192.75,74H200l1.53,1.55v4l-2.65.4V76.29h-5v14.3h5V84.14h-3.51V81.81h6.16Zm25.91,1.58h-8.54V74h8.54v2.49H221.5v5.36h5.44v2.46H221.5v6h5.89Zm50.18,0H274.8L273.69,88h-4.35l-1.1,4.9h-2.83L269.64,74h3.75Zm-4.19-7.28-1.7-8.06-.18-1.39-.16,1.4-1.67,8.06Zm31.5,7.28h-3L296,78.51l-.36-1.23.27,1.31V92.86h-2.44V74h3.11l5.79,14.24.34,1.15-.27-1.12V74h2.44Zm27.71-1.6L331,92.86h-8.7V74H331l1.55,1.61Zm-2.65-.72V76.29h-5V90.54Zm53.28,2.32h-2.77L379.34,88H375l-1.1,4.9h-2.83L375.3,74H379ZM379,85.58l-1.7-8.06-.18-1.39-.16,1.4-1.67,8.06Zm29.93,5.73-1.53,1.55h-6.69l-1.58-1.61V75.57L400.71,74h6.61l1.61,1.61V80l-2.65.43v-4.1h-4.5V90.54h4.5V85.9l2.65-.43ZM437,92.86h-2.77L433.08,88h-4.35l-1.1,4.9H424.8L429,74h3.75Zm-4.19-7.28-1.7-8.06-.18-1.39-.16,1.4-1.67,8.06Zm30.36,5.68-1.61,1.61h-8.7V74h8.75l1.55,1.61Zm-2.65-.72V76.29h-5V90.54Zm28.57,2.32h-8.54V74h8.54v2.49H483.2v5.36h5.44v2.46H483.2v6h5.89Zm31.91,0h-2.4V78.33l.13-1.66-.27,1.63c-.05.31-.39,1.71-1,4.2q-.78,3-1.74,6.77c-.32,1.19-.63,2.39-.94,3.59h-2.44l-.91-3.53-1.77-6.75a38.54,38.54,0,0,1-1-4.28l-.27-1.63a8.4,8.4,0,0,0,.07,1c.05.39.07.62.07.71V92.86H506V74h3.78l3.61,14.43.11,1.21.13-1.21c0-.41.37-1.82,1-4.23.53-2.11,1.1-4.33,1.71-6.68s.92-3.52.94-3.52H521ZM548,74l-4.34,11.43V92.9H541V85.39L536.75,74h2.83l2.5,7.23s.07.36.17,1a4.92,4.92,0,0,0,.14.91l.31-1.86L545.21,74Z" transform="translate(-0.01 0)" style="fill: #000"/>
      <g id="_Group_10" data-name=" Group 10">
        <path id="_Group_11" data-name=" Group 11" d="M46.38,93A46.38,46.38,0,1,1,92.77,46.63v0A46.45,46.45,0,0,1,46.38,93Zm0-86.83A40.45,40.45,0,1,0,86.83,46.65,40.45,40.45,0,0,0,46.38,6.17Z" transform="translate(-0.01 0)" style="fill: #000"/>
        <g id="_Group_12" data-name=" Group 12">
          <path id="_Group_13" data-name=" Group 13" d="M76.12,75.63S62,46.56,56.9,37.78C52,29.25,46,30,46,30s-5.82-.54-10.15,7.76c-4.69,9-19,37.84-19,37.84l8.37,6.62S40.4,40.89,40.94,39.61s2.35-4,5.07-4,5.17,2.62,5.81,4S67.37,82,67.37,82Z" transform="translate(-0.01 0)" style="fill: #000"/>
        </g>
      </g>
    </g>
  </g>
</svg>
